<svg id="eaeOQw4uMIW1" xmlns="http://www.w3.org/2000/svg" xmlns:xlink="http://www.w3.org/1999/xlink" viewBox="75 120 1000 676.5" shape-rendering="geometricPrecision" text-rendering="geometricPrecision" project-id="237af830e74d4e8b83dbd18a35badc3f" export-id="c37a8c2615004703a5b16fdb17e4fcef" cached="false"><g transform="matrix(.975283-.220959 0.220959 0.975283-54.978754 85.205164)"><path d="M251.699,206.861c.015.469,6.143-6.507,6.611-8.667c1.165-5.37-5.092-16.795-5.937-17.64-2.892-2.891-5.165-5.381-9.536-6.222-12.513-2.406-11.04-28.769-11.04-38.097c0-3.963-.558-10.169,2.573-13.326c2.041-2.058,12.409,1.491,14.496,2.178c14.118,4.651,25.919,22.965,40.699,22.965c11.91,0,39.815-.448,41.256.993c10.693-21.52,33.474-22.539,54.435-22.539c12.931,0,26.758,7.946,24.023,22.828-3.343,18.193-21.819,36.804-36.506,46.514-1.375.909-17.099,7.262-24.47,21.429-8.619,16.566-14.151,39.578-17.801,42.775-11.435,10.016-16.159,8.464-31.25,8.464-1.361,0-17.343-.722-17.514.72-.933,7.857,1.974,15.972,3.041,23.651c1.261,9.069.955,18.091.598,27.224-.334,8.569-1.378,17.174-9.023,22.266-12.047,8.024-18.266-9.403-22.168-16.294-8.569-15.135-4.457-31.454-7.592-47.735-1.26-6.546-8.312-14.913-15.537-15.657-5.79-.596-12.083.139-17.764,1.076-1.836.302-15.633,1.629-16.539,4.543-3.624,11.649,2.746,24.658,3.867,35.676.61,5.993-.289,12.453-1.034,18.382-.465,3.694.099,14.781-3.97,16.987-13.317,7.221-35.868-.738-46.177-9.834-12.039-10.622-14.39-21.694-14.659-37.582-.039-2.307-.137-18.062-2.983-18.968-4.469-1.422-5.492-3.602-10.358-5.051-4.818-1.435-1.45-38.548-6.537-40.561-20.909-8.276-10.279-19.171-21.089-34.815-10.252-14.835-18.537-26.107-6.028-29.279c6.09-1.544,8.052-.298,14.578-1.487c8.253-1.504,11.089,4.92,13.976,11.42c3.642,8.2,12.467,35.672,24.589,36.771c14.644,1.328,28.829-2.685,43.324-3.321c13.759-.603,27.596-.23,41.381-.23c2.941,0,23.415-2.407,26.065.443Z" transform="translate(28.474272 31.062843)" fill="#eebc8f" stroke="#000" stroke-width="5"/><path d="M293.299,161.139c-.765-.494-7.35,2.99-6.717,6.159.576,2.883-.071,9.316,1.542,11.52c2.183,2.987,7.124,3.198,9.787,2.869c3.986-.494,4.407-3.021,4.407-8.492c0-1.926.03-5.509-.609-7.274-1.382-3.821-5.925-5.076-8.41-4.782Z" transform="translate(28.474272 31.062843)" opacity="0.9" fill="#fff" stroke="#000" stroke-width="3"/><path d="M292.711,164.959c-.054.891-.106,8.369.291,13.134.06.725,1.518,3.118,1.909,3.694.684,1.005,1.659-3.252,1.939-4.312c1.043-3.967.267-9.696-.592-13.539-.18-.81-1.004-2.896-2.066-2.843-.929.046-1.174,2.791-1.481,3.866Z" transform="translate(28.474272 31.062843)" opacity="0.9" fill="#c6f5f8" stroke="#000" stroke-width="3"/><path d="M320.631,164.917c-2.653,2.952-.166,8.428-.065,13.147.144,6.774,7.215,7.863,11.429,5.492c3.157-1.774,3.47-6.324,1.814-11.736-.676-2.21-1.117-4.856-2.778-6.135-1.105-.849-10.003-1.169-10.4-.768Z" transform="translate(28.474272 31.062843)" fill="#fff" stroke="#000" stroke-width="3"/><path d="M324.198,167.933c-.156.599.378,7.396.918,10.762.298,1.852,1.854,6.478,3.518,5.745c1.644-.725.011-5.353.268-7.484.304-2.53.241-7.008-.266-9.657-.651-3.408-3.672-2.311-4.438.634Z" transform="translate(28.474272 31.062843)" fill="#c6f5f8" stroke="#000" stroke-width="3"/><g transform="matrix(1.15654 0 0 1.15654 37.081462-35.100257)"><path d="M259.072,224.247c-.518.102-4.865,7.016-1.677,10.032c1.392,1.317,3.39,1.348,5.185,1.311c1.176-.024,2.805.063,3.85-.618c1.117-.728,1.375-2.577,1.64-3.752c1.102-4.883-4.547-9.184-8.998-6.973Z" fill="#fff" stroke="#000" stroke-width="4.32323"/><path d="M266.357,235.346c5.883,2.311,12.851,5.51,17.318-.876.831-1.187,1.128-2.391,1.424-3.749" fill="rgba(255,255,255,0)" stroke="#000" stroke-width="4.32323"/><path d="M259.673,235.332c-3.723,5.303-14.58,3.656-19.318-.084-1.455-1.147-1.385-2.778-2.606-3.786" fill="rgba(255,255,255,0)" stroke="#000" stroke-width="4.32323"/></g></g></svg>
