<svg viewBox="75 120 340 230" xmlns="http://www.w3.org/2000/svg">
  <path class="catBody" stroke="#000" fill="rgb(238, 188, 143)" stroke-width="5" d="M 251.7 206.86 C 251.71 207.33 257.84 200.35 258.31 198.19 C 259.48 192.82 253.22 181.4 252.37 180.55 C 249.48 177.66 247.21 175.17 242.84 174.33 C 230.32 171.93 231.8 145.56 231.8 136.24 C 231.8 132.27 231.24 126.07 234.37 122.91 C 236.41 120.85 246.78 124.4 248.87 125.09 C 262.98 129.74 274.79 148.05 289.57 148.05 C 301.48 148.05 329.38 147.6 330.82 149.05 C 341.51 127.53 364.3 126.51 385.26 126.51 C 398.19 126.51 412.01 134.45 409.28 149.33 C 405.94 167.53 387.46 186.14 372.77 195.85 C 371.4 196.76 355.67 203.11 348.3 217.28 C 339.68 233.84 334.15 256.86 330.5 260.05 C 319.07 270.07 314.34 268.52 299.25 268.52 C 297.89 268.52 281.91 267.79 281.74 269.24 C 280.81 277.09 283.71 285.21 284.78 292.89 C 286.04 301.96 285.73 310.98 285.38 320.11 C 285.04 328.68 284 337.29 276.35 342.38 C 264.31 350.4 258.09 332.97 254.19 326.08 C 245.62 310.95 249.73 294.63 246.59 278.35 C 245.33 271.8 238.28 263.44 231.06 262.69 C 225.27 262.1 218.97 262.83 213.29 263.77 C 211.46 264.07 197.66 265.4 196.75 268.31 C 193.13 279.96 199.5 292.97 200.62 303.99 C 201.23 309.98 200.33 316.44 199.59 322.37 C 199.12 326.06 199.69 337.15 195.62 339.36 C 182.3 346.58 159.75 338.62 149.44 329.52 C 137.4 318.9 135.05 307.83 134.78 291.94 C 134.74 289.63 134.64 273.88 131.8 272.97 C 127.33 271.55 126.31 269.37 121.44 267.92 C 116.62 266.49 119.99 229.37 114.9 227.36 C 93.99 219.08 104.62 208.19 93.81 192.54 C 83.56 177.71 75.28 166.44 87.79 163.27 C 93.88 161.72 95.84 162.97 102.36 161.78 C 110.62 160.27 113.45 166.7 116.34 173.2 C 119.98 181.4 128.81 208.87 140.93 209.97 C 155.57 211.3 169.76 207.28 184.25 206.65 C 198.01 206.05 211.85 206.42 225.63 206.42 C 228.58 206.42 249.05 204.01 251.7 206.86 Z"/>
  <path stroke="#000" fill="#fff" opacity="0.9" stroke-width="3" d="M 293.3 161.14 C 292.53 160.65 285.95 164.13 286.58 167.3 C 287.16 170.18 286.51 176.61 288.12 178.82 C 290.31 181.81 295.25 182.02 297.91 181.69 C 301.9 181.19 302.32 178.67 302.32 173.2 C 302.32 171.27 302.35 167.69 301.71 165.92 C 300.33 162.1 295.78 160.85 293.3 161.14 Z"/>
  <path stroke="#000" opacity="0.9" fill="rgb(198, 245, 248)" stroke-width="3" d="M 292.71 164.96 C 292.66 165.85 292.61 173.33 293 178.09 C 293.06 178.82 294.52 181.21 294.91 181.79 C 295.6 182.79 296.57 178.54 296.85 177.48 C 297.89 173.51 297.12 167.78 296.26 163.94 C 296.08 163.13 295.25 161.04 294.19 161.09 C 293.26 161.14 293.02 163.88 292.71 164.96 Z"/>
  <path stroke="#000" fill="#fff" stroke-width="3" d="M 320.63 164.92 C 317.98 167.87 320.47 173.35 320.57 178.06 C 320.71 184.84 327.78 185.93 332 183.56 C 335.15 181.78 335.47 177.23 333.81 171.82 C 333.13 169.61 332.69 166.96 331.03 165.69 C 329.93 164.84 321.03 164.52 320.63 164.92 Z"/>
  <path stroke="#000" fill="rgb(198, 245, 248)" stroke-width="3" d="M 324.2 167.93 C 324.04 168.53 324.58 175.33 325.12 178.7 C 325.41 180.55 326.97 185.17 328.63 184.44 C 330.28 183.72 328.65 179.09 328.9 176.96 C 329.21 174.43 329.14 169.95 328.64 167.3 C 327.99 163.89 324.96 164.99 324.2 167.93 Z"/>
  <g transform="matrix(1.157, 0, 0, 1.157, 8.607, -66.163)">
    <path stroke="#000" fill="#fff" stroke-width="4.323" d="M 259.07 224.25 C 258.55 224.35 254.21 231.26 257.4 234.28 C 258.79 235.6 260.79 235.63 262.58 235.59 C 263.76 235.57 265.39 235.65 266.43 234.97 C 267.55 234.24 267.81 232.4 268.07 231.22 C 269.17 226.34 263.52 222.04 259.07 224.25 Z"/>
    <path stroke="#000" fill="none" stroke-width="4.323" d="M 266.36 235.35 C 272.24 237.66 279.21 240.86 283.68 234.47 C 284.51 233.28 284.8 232.08 285.1 230.72"/>
    <path stroke="#000" fill="none" stroke-width="4.323" d="M 259.67 235.33 C 255.95 240.64 245.09 238.99 240.36 235.25 C 238.9 234.1 238.97 232.47 237.75 231.46"/>
  </g>
</svg>

