<?xml version="1.0" encoding="utf-8"?>
<svg viewBox="34.0436 156.0667 328.1457 222.1714" xmlns="http://www.w3.org/2000/svg">
  <path style="stroke: rgb(0, 0, 0); fill: rgb(238, 188, 143); stroke-width: 5px;" d="M 204.26 240.653 C 204.275 241.122 210.403 234.146 210.871 231.986 C 212.036 226.616 205.779 215.191 204.934 214.346 C 202.042 211.455 199.769 208.965 195.398 208.124 C 182.885 205.718 184.358 179.355 184.358 170.027 C 184.358 166.064 183.8 159.858 186.931 156.701 C 188.972 154.643 199.34 158.192 201.427 158.879 C 215.545 163.53 227.346 181.844 242.126 181.844 C 254.036 181.844 281.941 181.396 283.382 182.837 C 294.075 161.317 316.856 160.298 337.817 160.298 C 350.748 160.298 364.575 168.244 361.84 183.126 C 358.497 201.319 340.021 219.93 325.334 229.64 C 323.959 230.549 308.235 236.902 300.864 251.069 C 292.245 267.635 286.713 290.647 283.063 293.844 C 271.628 303.86 266.904 302.308 251.813 302.308 C 250.452 302.308 234.47 301.586 234.299 303.028 C 233.366 310.885 236.273 319 237.34 326.679 C 238.601 335.748 238.295 344.77 237.938 353.903 C 237.604 362.472 236.56 371.077 228.915 376.169 C 216.868 384.193 210.649 366.766 206.747 359.875 C 198.178 344.74 202.29 328.421 199.155 312.14 C 197.895 305.594 190.843 297.227 183.618 296.483 C 177.828 295.887 171.535 296.622 165.854 297.559 C 164.018 297.861 150.221 299.188 149.315 302.102 C 145.691 313.751 152.061 326.76 153.182 337.778 C 153.792 343.771 152.893 350.231 152.148 356.16 C 151.683 359.854 152.247 370.941 148.178 373.147 C 134.861 380.368 112.31 372.409 102.001 363.313 C 89.962 352.691 87.611 341.619 87.342 325.731 C 87.303 323.424 87.205 307.669 84.359 306.763 C 79.89 305.341 78.867 303.161 74.001 301.712 C 69.183 300.277 72.551 263.164 67.464 261.151 C 46.555 252.875 57.185 241.98 46.375 226.336 C 36.123 211.501 27.838 200.229 40.347 197.057 C 46.437 195.513 48.399 196.759 54.925 195.57 C 63.178 194.066 66.014 200.49 68.901 206.99 C 72.543 215.19 81.368 242.662 93.49 243.761 C 108.134 245.089 122.319 241.076 136.814 240.44 C 150.573 239.837 164.41 240.21 178.195 240.21 C 181.136 240.21 201.61 237.803 204.26 240.653 Z"/>
</svg>