<?xml version="1.0" encoding="utf-8"?>
<svg viewBox="34.0436 156.0667 328.1457 222.1714" xmlns="http://www.w3.org/2000/svg">
  <path style="stroke: rgb(0, 0, 0); fill: rgb(238, 188, 143); stroke-width: 5px;" d="M 204.26 240.653 C 204.275 241.122 210.403 234.146 210.871 231.986 C 212.036 226.616 205.779 215.191 204.934 214.346 C 202.042 211.455 199.769 208.965 195.398 208.124 C 182.885 205.718 184.358 179.355 184.358 170.027 C 184.358 166.064 183.8 159.858 186.931 156.701 C 188.972 154.643 199.34 158.192 201.427 158.879 C 215.545 163.53 227.346 181.844 242.126 181.844 C 254.036 181.844 281.941 181.396 283.382 182.837 C 294.075 161.317 316.856 160.298 337.817 160.298 C 350.748 160.298 364.575 168.244 361.84 183.126 C 358.497 201.319 340.021 219.93 325.334 229.64 C 323.959 230.549 308.235 236.902 300.864 251.069 C 292.245 267.635 286.713 290.647 283.063 293.844 C 271.628 303.86 266.904 302.308 251.813 302.308 C 250.452 302.308 234.47 301.586 234.299 303.028 C 233.366 310.885 236.273 319 237.34 326.679 C 238.601 335.748 238.295 344.77 237.938 353.903 C 237.604 362.472 236.56 371.077 228.915 376.169 C 216.868 384.193 210.649 366.766 206.747 359.875 C 198.178 344.74 202.29 328.421 199.155 312.14 C 197.895 305.594 190.843 297.227 183.618 296.483 C 177.828 295.887 171.535 296.622 165.854 297.559 C 164.018 297.861 150.221 299.188 149.315 302.102 C 145.691 313.751 152.061 326.76 153.182 337.778 C 153.792 343.771 152.893 350.231 152.148 356.16 C 151.683 359.854 152.247 370.941 148.178 373.147 C 134.861 380.368 112.31 372.409 102.001 363.313 C 89.962 352.691 87.611 341.619 87.342 325.731 C 87.303 323.424 87.205 307.669 84.359 306.763 C 79.89 305.341 78.867 303.161 74.001 301.712 C 69.183 300.277 72.551 263.164 67.464 261.151 C 46.555 252.875 57.185 241.98 46.375 226.336 C 36.123 211.501 27.838 200.229 40.347 197.057 C 46.437 195.513 48.399 196.759 54.925 195.57 C 63.178 194.066 66.014 200.49 68.901 206.99 C 72.543 215.19 81.368 242.662 93.49 243.761 C 108.134 245.089 122.319 241.076 136.814 240.44 C 150.573 239.837 164.41 240.21 178.195 240.21 C 181.136 240.21 201.61 237.803 204.26 240.653 Z"/>
  <path style="stroke: rgb(0, 0, 0); fill: rgb(255, 255, 255); opacity: 0.9; stroke-width: 3px;" d="M 245.86 194.931 C 245.095 194.437 238.51 197.921 239.143 201.09 C 239.719 203.973 239.072 210.406 240.685 212.61 C 242.868 215.597 247.809 215.808 250.472 215.479 C 254.458 214.985 254.879 212.458 254.879 206.987 C 254.879 205.061 254.909 201.478 254.27 199.713 C 252.888 195.892 248.345 194.637 245.86 194.931 Z"/>
  <path style="stroke: rgb(0, 0, 0); opacity: 0.9; fill: rgb(198, 245, 248); stroke-width: 3px;" d="M 245.272 198.751 C 245.218 199.642 245.166 207.12 245.563 211.885 C 245.623 212.61 247.081 215.003 247.472 215.579 C 248.156 216.584 249.131 212.327 249.411 211.267 C 250.454 207.3 249.678 201.571 248.819 197.728 C 248.639 196.918 247.815 194.832 246.753 194.885 C 245.824 194.931 245.579 197.676 245.272 198.751 Z"/>
  <path style="stroke: rgb(0, 0, 0); fill: rgb(255, 255, 255); stroke-width: 3px;" d="M 273.192 198.709 C 270.539 201.661 273.026 207.137 273.127 211.856 C 273.271 218.63 280.342 219.719 284.556 217.348 C 287.713 215.574 288.026 211.024 286.37 205.612 C 285.694 203.402 285.253 200.756 283.592 199.477 C 282.487 198.628 273.589 198.308 273.192 198.709 Z"/>
  <path style="stroke: rgb(0, 0, 0); fill: rgb(198, 245, 248); stroke-width: 3px;" d="M 276.759 201.725 C 276.603 202.324 277.137 209.121 277.677 212.487 C 277.975 214.339 279.531 218.965 281.195 218.232 C 282.839 217.507 281.206 212.879 281.463 210.748 C 281.767 208.218 281.704 203.74 281.197 201.091 C 280.546 197.683 277.525 198.78 276.759 201.725 Z"/>
  <path style="stroke: rgb(0, 0, 0); fill: rgb(255, 255, 255); stroke-width: 4.32323px;" d="M 259.072 224.247 C 258.554 224.349 254.207 231.263 257.395 234.279 C 258.787 235.596 260.785 235.627 262.58 235.59 C 263.756 235.566 265.385 235.653 266.43 234.972 C 267.547 234.244 267.805 232.395 268.07 231.22 C 269.172 226.337 263.523 222.036 259.072 224.247 Z" transform="matrix(1.1565430164337158, 0, 0, 1.1565430164337158, -38.8313102722168, -32.3710823059082)"/>
  <path style="stroke: rgb(0, 0, 0); fill: rgba(255, 255, 255, 0); stroke-width: 4.32323px;" d="M 266.357 235.346 C 272.24 237.657 279.208 240.856 283.675 234.47 C 284.506 233.283 284.803 232.079 285.099 230.721" transform="matrix(1.1565430164337158, 0, 0, 1.1565430164337158, -38.8313102722168, -32.3710823059082)"/>
  <path style="stroke: rgb(0, 0, 0); fill: rgba(255, 255, 255, 0); stroke-width: 4.32323px;" d="M 259.673 235.332 C 255.95 240.635 245.093 238.988 240.355 235.248 C 238.9 234.101 238.97 232.47 237.749 231.462" transform="matrix(1.1565430164337158, 0, 0, 1.1565430164337158, -38.8313102722168, -32.3710823059082)"/>
</svg>